<svg width="20" height="20" viewBox="0 0 20 20" fill="none" xmlns="http://www.w3.org/2000/svg">
<path d="M10.0001 5.83342C7.70008 5.83342 5.83342 7.70008 5.83342 10.0001C5.83342 12.3001 7.70008 14.1667 10.0001 14.1667C12.3001 14.1667 14.1667 12.3001 14.1667 10.0001C14.1667 7.70008 12.3001 5.83342 10.0001 5.83342ZM10.0001 1.66675C5.40008 1.66675 1.66675 5.40008 1.66675 10.0001C1.66675 14.6001 5.40008 18.3334 10.0001 18.3334C14.6001 18.3334 18.3334 14.6001 18.3334 10.0001C18.3334 5.40008 14.6001 1.66675 10.0001 1.66675ZM10.0001 16.6667C6.31675 16.6667 3.33342 13.6834 3.33342 10.0001C3.33342 6.31675 6.31675 3.33341 10.0001 3.33341C13.6834 3.33341 16.6668 6.31675 16.6668 10.0001C16.6668 13.6834 13.6834 16.6667 10.0001 16.6667Z" fill="white" fill-opacity="0.87"/>
</svg>
